<?xml version="1.0" standalone="no"?>
<!DOCTYPE svg PUBLIC "-//W3C//DTD SVG 20010904//EN"
 "http://www.w3.org/TR/2001/REC-SVG-20010904/DTD/svg10.dtd">
<svg version="1.0" xmlns="http://www.w3.org/2000/svg"
 width="1080.000000pt" height="1080.000000pt" viewBox="0 0 1080.000000 1080.000000"
 preserveAspectRatio="xMidYMid meet">

<g transform="translate(0.000000,1080.000000) scale(0.100000,-0.100000)"
fill="#000000" stroke="none">
<path d="M0 5400 l0 -5400 5400 0 5400 0 0 5400 0 5400 -5400 0 -5400 0 0
-5400z m5730 5170 c634 -44 1258 -200 1816 -455 139 -64 166 -77 354 -178 410
-218 857 -560 1215 -928 939 -966 1465 -2262 1465 -3609 0 -1794 -932 -3464
-2460 -4409 -112 -70 -176 -106 -375 -211 -112 -59 -350 -163 -520 -227 -1287
-485 -2727 -437 -3971 132 -139 64 -166 77 -354 178 -410 218 -857 560 -1215
928 -939 966 -1465 2262 -1465 3609 0 1794 932 3464 2460 4409 112 70 176 106
375 211 201 106 577 257 835 335 372 112 777 187 1155 214 173 12 517 12 685
1z"/>
<path d="M5164 10014 c-28 -44 -67 -105 -87 -136 -20 -32 -40 -58 -44 -58 -5
0 -38 35 -75 78 -122 139 -137 156 -143 151 -2 -3 3 -94 12 -203 l17 -197 35
3 36 3 0 78 c-1 42 1 77 4 77 3 0 33 -30 67 -67 l62 -68 53 84 54 85 3 -40 c1
-21 5 -58 8 -81 5 -42 6 -43 45 -43 27 0 39 4 39 14 0 22 -31 380 -33 390 -2
5 -26 -27 -53 -70z"/>
<path d="M6040 10068 c0 -3 -9 -54 -20 -114 -33 -181 -24 -240 43 -294 26 -21
42 -25 97 -25 57 0 72 4 102 27 22 17 43 45 52 70 18 49 57 268 50 280 -3 4
-21 8 -39 8 -40 0 -36 10 -65 -155 -17 -92 -24 -114 -45 -132 -35 -30 -79 -30
-110 2 -31 30 -31 56 -4 204 11 62 19 114 17 116 -5 6 -78 17 -78 13z"/>
<path d="M4423 9991 c-58 -36 -78 -103 -48 -161 19 -36 44 -51 114 -65 60 -12
83 -34 65 -62 -15 -24 -48 -28 -67 -9 -10 11 -26 13 -51 9 -47 -7 -47 -31 -1
-72 29 -25 44 -31 83 -31 54 0 85 18 107 60 42 81 -5 161 -103 175 -40 5 -57
13 -69 31 -14 23 -14 26 2 44 22 24 38 25 59 5 16 -17 53 -19 75 -6 12 8 13
15 3 35 -26 57 -114 82 -169 47z"/>
<path d="M6646 9919 c-63 -18 -101 -84 -84 -144 4 -17 33 -53 64 -82 50 -46
54 -54 44 -73 -16 -31 -61 -23 -78 13 -7 15 -18 27 -25 27 -7 0 -22 3 -34 6
-21 6 -23 3 -23 -27 0 -64 63 -129 126 -129 54 0 124 68 124 121 0 35 -34 85
-75 111 -19 13 -38 33 -41 46 -13 49 51 71 71 24 13 -28 74 -51 86 -31 4 8 6
25 2 39 -17 75 -88 120 -157 99z"/>
<path d="M4078 9907 c-16 -6 -28 -16 -28 -22 0 -7 16 -61 35 -121 39 -123 42
-150 19 -182 -24 -35 -59 -44 -98 -28 -36 15 -40 23 -92 186 -14 47 -30 88
-33 93 -10 11 -71 -13 -71 -27 0 -26 80 -257 97 -281 22 -30 93 -65 133 -65
35 0 97 29 122 57 30 33 49 91 42 128 -11 59 -81 269 -90 271 -5 1 -21 -3 -36
-9z"/>
<path d="M7031 9792 c-5 -10 -28 -63 -49 -118 -22 -54 -52 -125 -66 -157 -14
-32 -26 -64 -26 -71 0 -14 56 -39 70 -31 4 2 18 32 30 65 25 66 36 74 46 33
16 -72 37 -143 43 -142 3 0 40 20 81 43 41 24 76 43 78 41 2 -1 -8 -31 -22
-66 -15 -34 -26 -67 -26 -74 0 -13 62 -38 70 -27 14 15 152 353 148 358 -5 4
-118 -58 -228 -125 -19 -11 -40 -21 -45 -21 -6 0 -28 70 -49 155 -21 85 -40
155 -42 155 -2 0 -8 -8 -13 -18z"/>
<path d="M3047 9408 c-4 -29 -9 -101 -13 -160 -4 -70 -10 -108 -18 -108 -6 0
-73 23 -149 51 -76 29 -140 49 -143 46 -3 -3 36 -70 86 -148 51 -79 98 -154
106 -166 13 -21 15 -22 44 -5 16 9 30 23 30 30 0 7 -16 38 -36 69 -19 30 -33
57 -31 59 2 2 38 -10 81 -26 42 -17 81 -30 85 -30 5 0 12 41 15 90 4 50 11 90
14 90 4 0 24 -27 46 -60 21 -33 40 -60 43 -60 10 0 63 35 63 41 0 7 -196 317
-210 332 -4 5 -10 -15 -13 -45z"/>
<path d="M5298 9343 c-15 -10 -35 -31 -44 -48 -16 -31 -16 -46 1 -131 6 -27 4
-32 -22 -42 -15 -5 -44 -13 -64 -15 -51 -7 -109 -34 -109 -50 0 -8 21 -59 46
-112 75 -160 70 -190 -23 -156 -75 27 -191 54 -208 47 -13 -4 -15 -39 -15
-224 0 -149 4 -222 11 -229 11 -11 28 -7 114 27 72 29 149 38 161 19 3 -6 -3
-32 -14 -58 -48 -106 -82 -190 -82 -201 0 -6 17 -18 38 -27 64 -26 67 -32 27
-68 -30 -28 -35 -39 -35 -77 0 -38 -4 -46 -25 -56 -14 -7 -34 -12 -43 -12 -21
0 -117 -30 -192 -60 -144 -56 -292 -147 -309 -188 -19 -47 1 -120 116 -412 36
-91 78 -193 93 -227 16 -34 36 -83 45 -110 20 -59 37 -97 81 -188 38 -78 41
-69 -36 -118 -47 -30 -61 -78 -33 -115 11 -15 37 -32 59 -38 l39 -11 0 -68 c0
-76 1 -75 -87 -90 -61 -10 -82 -34 -88 -101 l-5 -59 -52 -24 c-64 -30 -82 -62
-64 -121 6 -22 22 -45 34 -52 12 -6 68 -13 125 -14 56 -2 107 -6 112 -9 5 -3
14 -25 20 -48 11 -46 22 -88 40 -154 6 -24 15 -98 20 -165 5 -68 15 -157 22
-198 22 -130 15 -421 -21 -890 -9 -115 -17 -171 -41 -305 -16 -91 -30 -195
-30 -223 0 -35 -45 -268 -77 -401 -30 -127 -78 -275 -99 -307 -9 -13 -58 -46
-109 -73 -51 -28 -95 -58 -99 -67 -3 -8 -6 -37 -6 -64 0 -91 -28 -189 -74
-256 -21 -31 -116 -139 -237 -269 -72 -77 -99 -139 -99 -228 0 -89 51 -175
132 -224 63 -37 64 -62 3 -87 -62 -25 -85 -57 -85 -117 0 -44 3 -50 31 -65 82
-42 107 -45 454 -54 493 -13 1772 -14 1821 -2 21 6 62 16 89 23 71 17 105 51
105 105 0 59 -34 98 -101 115 -28 7 -54 20 -57 28 -7 20 26 41 64 41 26 0 40
8 69 44 51 63 75 131 75 216 0 95 -21 136 -126 246 -174 180 -214 226 -239
278 -23 48 -26 63 -23 149 3 92 2 97 -24 124 -15 15 -42 35 -60 44 -128 60
-125 58 -152 118 -66 148 -189 600 -215 791 -5 36 -11 72 -14 80 -26 67 -49
707 -37 995 12 288 35 518 60 625 5 19 14 62 21 94 19 85 34 96 138 96 99 0
150 19 165 61 20 58 -26 122 -94 133 -42 7 -43 8 -54 91 -7 56 -41 82 -115 91
l-59 6 -1 69 0 68 52 19 c63 23 85 56 68 104 -13 38 -38 57 -73 58 -15 0 -34
7 -42 16 -14 14 -10 27 48 142 59 118 80 163 126 267 10 22 33 76 53 120 136
308 167 436 122 498 -57 77 -238 179 -396 222 -52 14 -105 29 -119 33 -22 6
-26 14 -30 64 -4 40 -12 64 -28 80 -30 33 -28 47 12 63 19 8 38 19 41 25 4 6
-16 59 -44 119 -51 111 -61 150 -38 152 22 2 52 -2 77 -10 14 -5 58 -19 99
-31 106 -32 103 -38 102 209 -1 198 -6 233 -35 244 -14 6 -126 -21 -179 -42
-68 -27 -71 -10 -23 121 47 127 48 134 34 145 -13 10 -27 15 -135 48 l-53 16
6 58 c7 65 -8 105 -52 140 -32 25 -88 27 -126 4z"/>
<path d="M8058 9138 c-86 -110 -108 -150 -108 -198 1 -121 122 -201 232 -152
37 16 61 41 132 133 l87 114 -28 22 c-15 13 -31 23 -34 23 -3 0 -43 -48 -89
-106 -45 -58 -93 -109 -106 -115 -33 -12 -90 12 -105 45 -18 38 -6 65 82 180
l81 106 -24 20 c-12 11 -28 19 -35 20 -6 0 -44 -42 -85 -92z"/>
<path d="M2424 9027 c-46 -42 -56 -104 -25 -155 34 -53 90 -65 174 -36 56 19
80 7 75 -35 -3 -22 -8 -26 -43 -29 -47 -4 -91 -38 -74 -58 17 -20 76 -36 108
-29 40 8 88 59 95 100 8 43 -13 98 -48 120 -26 17 -59 17 -160 -1 -31 -5 -42
-3 -52 11 -24 32 4 68 46 60 17 -3 34 3 53 19 l29 23 -27 22 c-44 34 -107 29
-151 -12z"/>
<path d="M8518 8824 c-33 -17 -58 -62 -58 -101 0 -15 9 -48 20 -72 23 -50 25
-72 8 -89 -27 -27 -74 4 -64 43 4 15 -3 30 -23 49 l-29 28 -16 -23 c-9 -13
-16 -41 -16 -62 0 -95 96 -155 180 -112 62 32 76 92 40 167 -11 23 -20 52 -20
65 0 29 33 48 60 33 14 -7 20 -21 20 -44 0 -32 24 -66 48 -66 31 0 43 90 17
139 -27 53 -111 76 -167 45z"/>
<path d="M2130 8765 l-24 -25 102 -104 c86 -87 102 -108 102 -135 0 -45 -38
-81 -85 -81 -32 0 -47 11 -134 95 -54 52 -102 95 -107 95 -4 0 -19 -12 -31
-26 l-23 -27 98 -94 c53 -51 110 -101 126 -109 70 -38 174 -6 215 66 26 46 28
125 5 160 -25 38 -197 210 -210 210 -6 0 -21 -11 -34 -25z"/>
<path d="M8752 8424 c-83 -69 -152 -128 -152 -132 0 -4 10 -20 23 -36 l23 -28
54 46 c50 43 70 54 70 40 0 -3 -6 -32 -14 -63 -8 -31 -17 -69 -20 -85 l-7 -28
96 7 c66 5 95 4 95 -4 0 -6 -3 -11 -7 -11 -5 0 -24 -14 -43 -31 -19 -17 -43
-37 -54 -44 -18 -13 -18 -15 5 -44 13 -16 27 -30 30 -30 7 -1 309 249 309 256
0 3 -72 2 -160 -2 -120 -6 -160 -5 -160 4 0 7 16 77 36 157 20 80 34 147 32
149 -2 2 -72 -53 -156 -121z"/>
<path d="M1440 7897 c0 -2 21 -51 46 -108 67 -154 85 -199 76 -199 -4 0 -77
-9 -162 -20 -85 -11 -157 -20 -160 -20 -2 0 37 -25 88 -55 51 -30 95 -55 97
-55 2 0 38 -20 78 -45 41 -25 79 -45 86 -45 9 0 41 49 41 64 0 2 -30 21 -67
42 -77 43 -75 45 50 58 44 5 67 12 67 21 0 7 -14 45 -32 84 -17 39 -29 74 -26
76 3 3 31 -10 63 -30 33 -19 62 -35 67 -35 7 0 38 52 38 64 0 3 -53 36 -117
74 -169 99 -233 134 -233 129z"/>
<path d="M9485 7475 c-70 -32 -131 -67 -147 -85 -34 -37 -53 -98 -44 -144 8
-44 59 -104 103 -122 62 -26 72 -24 315 84 21 10 38 22 38 29 0 18 -22 63 -31
63 -4 0 -56 -22 -116 -49 -59 -27 -118 -51 -130 -55 -52 -16 -114 54 -94 107
13 34 38 51 151 101 58 26 109 51 113 56 9 8 -18 70 -31 70 -4 0 -61 -25 -127
-55z"/>
<path d="M1129 7277 c-85 -57 -62 -187 38 -216 39 -11 83 8 139 59 45 42 66
44 85 8 8 -15 7 -24 -7 -39 -9 -10 -23 -19 -30 -19 -16 0 -47 -57 -39 -70 9
-14 65 -12 95 3 34 17 70 74 70 111 0 44 -34 95 -76 112 -47 20 -91 6 -144
-47 -43 -43 -74 -48 -94 -16 -14 22 2 51 31 55 20 3 43 39 43 67 0 24 -71 19
-111 -8z"/>
<path d="M9707 6978 c-37 -13 -67 -74 -67 -136 0 -53 -12 -72 -47 -72 -36 0
-51 51 -20 71 13 9 -11 79 -26 79 -31 -1 -77 -68 -77 -110 0 -36 28 -85 59
-103 36 -21 104 -22 136 -1 28 18 45 62 45 116 0 22 5 48 10 59 13 23 53 25
71 3 11 -13 11 -20 -2 -43 -12 -20 -13 -34 -6 -56 12 -38 12 -38 36 -30 28 9
61 66 61 106 0 46 -33 97 -75 115 -39 16 -59 17 -98 2z"/>
<path d="M942 6863 c-6 -20 -10 -39 -7 -41 2 -2 61 -21 131 -42 69 -21 133
-45 141 -52 7 -8 16 -31 20 -51 5 -31 1 -40 -25 -67 -17 -16 -39 -30 -50 -30
-10 0 -68 16 -128 35 -60 19 -117 35 -127 35 -18 0 -41 -44 -33 -65 2 -7 22
-17 43 -23 21 -5 79 -22 128 -37 106 -32 159 -30 209 8 90 69 88 201 -4 269
-17 12 -263 97 -286 98 0 0 -6 -17 -12 -37z"/>
<path d="M9765 6525 c-88 -19 -166 -34 -172 -34 -16 -1 -17 -67 -2 -76 6 -4
39 -2 75 5 36 7 67 10 70 7 3 -2 -20 -33 -51 -68 -30 -35 -54 -68 -52 -72 1
-5 35 -23 76 -41 40 -17 73 -36 72 -41 0 -6 -32 -16 -71 -24 l-70 -14 6 -36
c4 -20 9 -38 11 -41 5 -6 376 70 386 79 4 4 -58 38 -138 75 -165 78 -160 59
-54 177 37 41 79 89 94 107 l27 32 -24 -1 c-12 0 -95 -16 -183 -34z"/>
<path d="M740 5759 c0 -4 43 -43 96 -86 53 -43 108 -87 122 -99 l25 -21 -34
-25 c-19 -13 -79 -56 -134 -94 l-100 -69 55 -6 c30 -4 121 -9 203 -12 l147 -6
0 45 0 44 -82 0 -82 0 42 30 c23 17 60 43 83 59 l40 29 -70 57 c-39 32 -71 60
-71 64 0 3 35 6 77 6 l78 0 0 35 c0 34 -1 35 -50 41 -75 11 -345 16 -345 8z"/>
<path d="M9795 5334 c-71 -37 -101 -92 -92 -170 6 -55 47 -111 96 -131 33 -14
284 -35 304 -26 4 2 7 21 7 42 l0 38 -128 6 c-138 6 -174 16 -191 54 -18 38
-13 62 18 93 l28 29 142 -6 141 -6 0 40 0 40 -92 7 c-142 10 -200 7 -233 -10z"/>
<path d="M961 5124 c-20 -18 -39 -50 -50 -83 -20 -62 -41 -82 -68 -65 -24 15
-29 62 -9 70 11 4 16 19 16 45 0 34 -3 39 -23 39 -30 0 -83 -52 -90 -89 -16
-77 42 -151 118 -151 60 0 100 35 120 105 18 61 35 79 64 70 31 -9 36 -43 12
-69 -22 -23 -27 -61 -12 -84 7 -12 13 -11 37 1 53 27 69 54 69 113 0 47 -4 58
-31 85 -23 23 -44 33 -76 36 -39 5 -49 2 -77 -23z"/>
<path d="M9709 4813 c-85 -52 -77 -172 13 -219 59 -31 119 2 174 95 20 34 53
41 74 16 16 -19 9 -45 -15 -59 -11 -6 -21 -11 -21 -11 -1 0 -5 -19 -9 -42 -8
-50 3 -54 62 -26 119 56 84 233 -46 233 -47 0 -92 -34 -122 -91 -11 -22 -25
-40 -32 -40 -35 -4 -56 11 -57 38 0 12 23 39 39 45 5 1 12 20 16 41 7 36 6 37
-21 37 -16 0 -41 -8 -55 -17z"/>
<path d="M940 4684 c-36 -8 -88 -19 -115 -24 -51 -11 -51 -11 -47 -45 2 -20 8
-37 12 -40 4 -2 65 7 135 20 70 14 138 22 152 19 51 -13 71 -90 34 -135 -15
-19 -43 -28 -152 -49 l-134 -26 3 -35 c2 -19 7 -37 10 -41 11 -11 264 45 302
67 105 61 99 222 -11 284 -43 24 -94 25 -189 5z"/>
<path d="M9592 4392 c-6 -19 -9 -38 -7 -42 2 -4 34 -15 70 -25 36 -9 65 -21
65 -25 0 -4 -36 -21 -80 -36 -44 -16 -80 -33 -80 -39 0 -5 23 -39 50 -74 28
-35 50 -67 50 -71 0 -5 -32 1 -71 12 -39 11 -75 16 -79 11 -13 -14 -21 -61
-11 -67 14 -9 381 -114 381 -109 0 2 -41 58 -90 123 -50 66 -93 126 -95 133
-3 8 43 30 140 66 80 30 145 57 145 61 0 4 -73 28 -162 54 -90 26 -175 51
-189 56 -24 7 -27 5 -37 -28z"/>
<path d="M1302 3639 c-90 -43 -168 -79 -173 -79 -5 0 -9 -7 -9 -15 0 -8 9 -15
20 -15 30 0 274 -51 281 -58 4 -4 -27 -70 -67 -146 -41 -77 -72 -141 -70 -143
1 -2 75 31 162 73 87 42 169 80 181 85 20 7 21 11 11 39 -6 18 -16 34 -23 36
-7 3 -41 -9 -75 -25 -35 -17 -65 -29 -68 -26 -2 2 14 38 37 80 23 42 39 80 36
85 -3 4 -38 14 -78 21 -108 18 -112 23 -42 55 86 39 87 40 68 80 -9 19 -19 34
-22 33 -3 0 -80 -36 -169 -80z"/>
<path d="M9197 3296 c-49 -18 -64 -32 -89 -80 -15 -29 -19 -52 -15 -89 5 -55
27 -90 83 -130 65 -48 205 -127 214 -122 14 8 34 69 24 72 -5 2 -58 34 -118
71 -115 70 -135 95 -122 147 8 31 48 58 84 57 15 0 79 -31 141 -68 l114 -67
18 24 c10 13 18 31 16 39 -2 15 -123 92 -212 135 -56 28 -84 30 -138 11z"/>
<path d="M1634 3131 c-45 -27 -59 -75 -43 -146 14 -64 3 -88 -40 -83 -23 3
-26 7 -26 44 -1 23 -9 54 -19 69 l-19 29 -23 -27 c-50 -58 -36 -148 28 -187
42 -25 84 -25 125 0 48 29 57 52 49 140 -5 63 -3 80 9 90 12 10 21 10 41 1 23
-10 25 -16 20 -49 -5 -28 -1 -43 14 -62 l20 -25 25 28 c18 20 25 40 25 69 0
101 -102 160 -186 109z"/>
<path d="M8914 2879 c-65 -19 -102 -102 -74 -169 14 -33 66 -70 98 -70 11 0
46 14 78 30 62 33 91 35 108 8 15 -25 -4 -52 -39 -56 -28 -4 -64 -36 -65 -58
0 -27 84 -33 130 -9 69 36 80 144 20 198 -29 25 -39 29 -79 25 -26 -3 -64 -16
-89 -32 -47 -30 -69 -31 -86 -3 -15 24 3 51 39 57 32 6 74 55 59 69 -15 15
-67 20 -100 10z"/>
<path d="M1892 2755 c-29 -13 -92 -59 -146 -108 -11 -9 -35 -27 -53 -40 -39
-26 -40 -33 -10 -69 l22 -28 105 85 c100 81 107 85 150 82 40 -2 47 -6 64 -38
30 -55 13 -83 -110 -179 l-104 -81 20 -30 c26 -35 37 -36 70 -6 14 12 52 43
86 69 114 87 145 141 130 224 -9 47 -68 111 -114 124 -49 13 -70 12 -110 -5z"/>
<path d="M8641 2567 c-11 -13 -21 -27 -21 -32 0 -5 23 -33 52 -62 l52 -53 -34
1 c-19 0 -60 4 -90 8 -30 5 -58 7 -61 5 -3 -2 0 -36 7 -76 21 -118 21 -119
-39 -60 -29 29 -57 52 -63 52 -6 0 -21 -12 -35 -26 l-24 -26 145 -139 c102
-97 146 -133 148 -121 1 9 -8 79 -21 155 -18 102 -21 140 -12 143 6 3 67 -2
135 -11 206 -25 203 -35 45 118 -76 72 -143 135 -150 139 -7 4 -21 -2 -34 -15z"/>
<path d="M2585 1914 c-64 -86 -114 -158 -112 -160 4 -4 63 12 280 76 15 5 28
6 28 2 5 -23 7 -82 8 -195 l1 -129 38 49 c21 26 43 55 48 64 5 9 21 32 36 50
15 19 48 63 74 98 l48 64 -30 23 c-16 13 -31 24 -34 24 -3 0 -25 -28 -50 -63
l-45 -62 -3 85 c-1 47 -4 90 -7 97 -3 8 -27 5 -85 -13 -45 -14 -85 -24 -90
-22 -5 2 11 30 36 63 l45 60 -26 23 c-14 12 -30 22 -35 22 -5 0 -61 -70 -125
-156z"/>
<path d="M7705 1777 c-70 -32 -115 -116 -101 -189 8 -42 138 -252 158 -256 8
-2 25 6 38 16 l23 19 -65 109 c-36 60 -69 119 -72 131 -10 31 17 78 52 92 50
21 76 2 152 -116 39 -60 71 -112 73 -118 2 -6 19 -3 41 8 21 9 36 21 34 25
-20 48 -150 240 -174 259 -39 29 -116 39 -159 20z"/>
<path d="M3174 1680 c-34 -13 -64 -59 -64 -97 0 -39 10 -62 53 -116 26 -33 28
-42 19 -63 -20 -42 -82 -27 -82 21 0 28 -58 64 -71 44 -25 -40 4 -130 50 -153
98 -51 211 27 182 126 -7 21 -25 53 -41 72 -35 39 -38 71 -10 86 28 15 60 -4
60 -35 0 -17 9 -29 30 -40 17 -9 35 -13 40 -10 14 9 12 86 -4 113 -28 52 -104
76 -162 52z"/>
<path d="M7258 1524 c-63 -34 -78 -131 -29 -186 28 -31 33 -33 104 -34 85 -1
97 -6 97 -38 0 -36 -24 -51 -59 -36 -24 9 -34 9 -60 -4 -27 -14 -29 -19 -19
-35 33 -54 120 -67 174 -26 59 45 68 125 19 178 -26 28 -55 35 -145 40 -51 2
-55 4 -58 29 -4 35 30 56 63 38 18 -10 28 -9 54 4 27 14 30 20 21 36 -24 46
-109 63 -162 34z"/>
<path d="M3563 1455 c-30 -18 -49 -40 -66 -78 -37 -78 -97 -214 -97 -220 0
-11 64 -37 71 -30 9 10 99 210 99 222 0 16 38 42 71 47 26 4 41 0 63 -17 25
-20 28 -27 24 -68 -3 -25 -26 -92 -52 -149 -25 -56 -46 -104 -46 -107 0 -12
63 -36 72 -27 10 10 60 120 99 217 63 154 -96 295 -238 210z"/>
<path d="M6941 1389 c-12 -5 -21 -15 -19 -22 23 -61 39 -119 34 -124 -3 -3
-36 15 -74 41 -38 25 -71 46 -75 46 -3 0 -18 -38 -33 -85 -16 -47 -31 -85 -34
-85 -3 0 -16 32 -29 71 -23 71 -23 71 -54 65 -17 -4 -35 -10 -39 -14 -8 -8
112 -382 122 -382 3 0 28 68 55 150 27 83 54 150 59 150 5 0 17 -6 25 -14 37
-31 241 -166 241 -159 0 4 -27 90 -61 190 -64 193 -64 194 -118 172z"/>
<path d="M4560 1183 c0 -5 -13 -91 -30 -193 -16 -101 -27 -186 -25 -188 2 -3
55 43 116 102 61 58 115 106 119 106 4 0 40 -63 81 -141 46 -89 75 -135 80
-127 4 7 12 47 18 88 6 41 19 125 29 187 l18 112 -20 5 c-55 15 -63 9 -71 -51
-13 -106 -18 -107 -64 -15 -23 45 -44 82 -48 82 -4 0 -36 -28 -70 -62 -34 -34
-65 -60 -68 -57 -2 3 0 33 6 67 14 79 9 92 -36 92 -19 0 -35 -3 -35 -7z"/>
<path d="M5683 1111 c-23 -11 -52 -36 -67 -57 -29 -43 -32 -86 -19 -263 l6
-92 41 3 c23 2 40 8 40 13 -1 6 -5 69 -9 141 -7 129 -6 131 18 160 19 22 32
28 62 27 68 -2 78 -23 89 -183 l10 -140 43 0 42 0 -5 83 c-11 159 -22 225 -40
250 -51 67 -139 92 -211 58z"/>
<path d="M5223 1113 c-12 -2 -36 -20 -53 -39 -23 -27 -30 -44 -30 -77 0 -56
20 -83 89 -115 44 -22 57 -33 59 -53 6 -50 -54 -64 -78 -18 -8 13 -21 19 -45
19 -29 0 -35 -4 -35 -22 0 -29 39 -84 68 -97 65 -30 147 6 171 75 21 60 -5
109 -79 147 -70 36 -74 40 -66 71 8 32 50 36 68 6 9 -14 24 -20 50 -20 34 0
38 3 38 24 0 35 -45 84 -88 96 -20 5 -39 9 -42 9 -3 -1 -15 -4 -27 -6z"/>
</g>
</svg>
