<?xml version="1.0" standalone="no"?>
<!DOCTYPE svg PUBLIC "-//W3C//DTD SVG 20010904//EN"
 "http://www.w3.org/TR/2001/REC-SVG-20010904/DTD/svg10.dtd">
<svg version="1.0" xmlns="http://www.w3.org/2000/svg"
 width="400.000000pt" height="400.000000pt" viewBox="0 0 400.000000 400.000000"
 preserveAspectRatio="xMidYMid meet">

<g transform="translate(0.000000,400.000000) scale(0.100000,-0.100000)"
fill="#000000" stroke="none">
<path d="M1903 3215 c-30 -76 -37 -105 -27 -105 7 0 20 14 29 30 13 25 22 30
51 30 27 0 36 -5 44 -24 9 -26 28 -42 37 -32 6 6 -78 206 -87 206 -3 0 -24
-47 -47 -105z m61 19 c11 -29 6 -44 -14 -44 -22 0 -23 3 -14 38 7 26 19 29 28
6z"/>
<path d="M2185 3288 c-6 -18 -45 -175 -45 -182 0 -3 6 -6 14 -6 8 0 17 12 20
28 4 15 12 44 17 66 l10 38 46 -73 c70 -115 67 -114 92 -5 21 90 21 116 2 116
-5 0 -14 -27 -21 -60 -7 -33 -16 -60 -20 -60 -3 0 -28 34 -54 75 -26 41 -50
75 -52 75 -3 0 -7 -6 -9 -12z"/>
<path d="M1650 3277 c-28 -14 -39 -59 -20 -82 6 -8 32 -17 57 -21 72 -11 68
-60 -5 -66 -25 -2 -37 -8 -37 -18 0 -11 10 -14 38 -13 50 3 75 18 83 50 11 44
-12 67 -78 78 -28 4 -38 11 -38 24 0 21 19 31 56 31 15 0 24 6 24 15 0 19 -45
20 -80 2z"/>
<path d="M2504 3168 c-24 -30 -22 -47 7 -88 17 -23 28 -48 25 -56 -8 -20 -39
-17 -70 7 -25 19 -46 19 -46 -2 0 -5 15 -18 33 -29 87 -54 152 6 92 84 -45 59
-25 85 36 49 35 -21 50 -10 23 18 -26 25 -86 36 -100 17z"/>
<path d="M1253 3088 c2 -7 12 -57 22 -111 11 -62 22 -96 29 -94 6 2 10 20 9
39 -2 31 2 38 31 53 31 17 34 17 58 1 18 -12 28 -14 33 -6 9 14 17 7 -87 74
-92 59 -103 64 -95 44z m87 -78 c0 -8 -30 -23 -36 -18 -1 2 -6 16 -10 32 l-7
28 27 -17 c14 -10 26 -21 26 -25z"/>
<path d="M2709 2964 c-108 -52 -103 -49 -94 -63 4 -8 15 -6 34 3 25 13 30 13
58 -10 29 -22 31 -27 21 -55 -11 -31 -4 -50 11 -33 10 11 72 196 68 201 -2 1
-46 -18 -98 -43z m50 -34 c-6 -16 -14 -30 -19 -30 -10 0 -34 29 -29 35 4 3 41
20 56 24 1 1 -3 -12 -8 -29z"/>
<path d="M1066 2919 c-31 -9 -86 -56 -86 -73 0 -6 34 -41 74 -78 l74 -68 27
32 c52 62 55 115 9 161 -29 29 -58 36 -98 26z m73 -47 c29 -23 31 -76 5 -103
-20 -19 -20 -19 -74 29 l-53 48 23 22 c29 27 70 28 99 4z"/>
<path d="M1915 2885 c-11 -2 -46 -7 -77 -10 -32 -4 -58 -10 -58 -14 0 -15 98
-34 185 -37 86 -2 195 18 195 37 0 12 -201 32 -245 24z"/>
<path d="M2889 2782 c-49 -32 -84 -62 -82 -69 7 -20 19 -16 73 22 28 20 50 30
50 23 0 -7 -7 -51 -15 -97 -8 -47 -13 -86 -12 -87 2 -2 42 23 89 54 65 43 85
61 78 72 -7 11 -19 7 -64 -23 -31 -21 -56 -34 -56 -30 0 5 7 48 15 98 8 49 13
90 12 92 -2 1 -41 -23 -88 -55z"/>
<path d="M1605 2813 c-216 -33 -370 -190 -398 -404 -11 -82 -1 -167 25 -224
l11 -24 45 40 c92 80 252 138 383 139 114 0 272 -57 369 -134 25 -19 48 -32
52 -28 4 4 14 34 22 67 72 276 -126 546 -419 568 -33 3 -73 3 -90 0z"/>
<path d="M2185 2809 c-22 -5 -52 -14 -67 -20 l-28 -11 40 -51 c176 -220 173
-533 -6 -754 -19 -23 -30 -44 -25 -47 22 -14 130 -36 176 -36 259 1 465 206
465 464 0 135 -46 242 -145 335 -108 102 -275 151 -410 120z"/>
<path d="M867 2696 c-4 -10 16 -27 61 -54 109 -64 113 -66 122 -51 6 9 -19 28
-82 66 -50 29 -91 53 -93 53 -2 0 -5 -6 -8 -14z"/>
<path d="M795 2540 c-4 -6 19 -35 52 -65 l58 -54 -50 -2 c-66 -2 -107 -11
-112 -26 -4 -11 41 -10 174 3 l53 5 -60 56 c-88 81 -108 95 -115 83z"/>
<path d="M2950 2474 c0 -9 11 -14 30 -14 25 0 33 -6 47 -35 16 -34 16 -36 -5
-58 -22 -23 -29 -47 -14 -47 5 0 43 32 86 72 91 83 91 82 -51 91 -77 5 -93 3
-93 -9z m142 -46 c-19 -20 -24 -21 -32 -8 -16 25 -12 30 22 30 l32 0 -22 -22z"/>
<path d="M783 2213 c-4 -21 -7 -101 -6 -178 1 -206 39 -362 130 -535 52 -100
76 -134 91 -129 7 2 -7 35 -33 78 -57 95 -100 200 -133 320 -23 87 -26 114
-26 289 -1 187 -7 230 -23 155z"/>
<path d="M2767 2195 c-23 -76 -23 -221 2 -299 l18 -58 13 75 c13 81 10 274 -7
315 -8 20 -10 17 -26 -33z"/>
<path d="M3134 2205 c12 -79 7 -287 -9 -370 -27 -144 -90 -304 -159 -406 -23
-34 -32 -55 -24 -58 46 -15 178 286 213 486 25 146 17 393 -13 393 -11 0 -13
-9 -8 -45z"/>
<path d="M1143 2183 c-10 -74 -8 -246 4 -298 l9 -40 18 55 c30 90 20 314 -15
335 -4 3 -11 -21 -16 -52z"/>
<path d="M1615 2203 c-152 -15 -303 -122 -367 -259 -147 -313 77 -664 424
-664 53 0 162 22 177 36 2 2 -15 27 -38 55 -170 213 -173 510 -9 727 27 35 48
65 48 67 0 2 -21 10 -47 19 -55 18 -130 25 -188 19z"/>
<path d="M1840 1904 c-41 -106 -32 -252 21 -364 33 -70 120 -163 189 -201 181
-100 409 -69 553 75 92 92 137 201 137 332 0 58 -21 168 -35 183 -2 2 -25 -15
-52 -37 -101 -85 -236 -132 -378 -131 -139 0 -246 36 -363 123 l-62 46 -10
-26z"/>
<path d="M1145 1282 c-9 -26 -26 -71 -37 -100 -11 -29 -18 -55 -15 -59 4 -3
51 14 106 38 75 32 97 46 90 55 -8 9 -25 5 -76 -17 -36 -17 -68 -28 -71 -25
-2 3 5 29 17 57 22 55 26 84 12 93 -5 3 -16 -16 -26 -42z"/>
<path d="M2785 1265 c3 -38 9 -78 11 -87 6 -22 1 -22 -87 -2 -39 9 -72 14 -74
12 -2 -2 27 -37 64 -78 53 -57 72 -72 81 -64 9 9 3 22 -27 54 l-38 43 40 -7
c22 -4 48 -10 59 -13 17 -5 18 -1 11 53 l-7 59 41 -40 c31 -30 44 -36 53 -27
11 11 -8 34 -120 152 -12 13 -13 6 -7 -55z"/>
<path d="M1812 1251 l-53 -17 64 -12 c82 -15 212 -15 294 0 l64 12 -58 18
c-76 23 -236 23 -311 -1z"/>
<path d="M1323 1057 c-39 -62 -49 -85 -41 -95 9 -10 24 7 69 75 31 48 55 91
52 96 -12 19 -32 0 -80 -76z"/>
<path d="M2500 1109 c-37 -15 -60 -39 -60 -64 0 -34 26 -50 82 -47 35 1 50 -3
55 -14 7 -19 -21 -50 -53 -58 -27 -7 -33 -36 -6 -36 24 0 79 35 92 60 25 46
-22 87 -85 76 -61 -11 -74 35 -15 55 16 6 30 17 30 25 0 16 -6 17 -40 3z"/>
<path d="M1483 981 c-18 -48 -33 -93 -33 -99 0 -27 121 -42 151 -19 43 33 54
113 22 149 -19 21 -53 41 -88 52 -18 5 -24 -5 -52 -83z m121 4 c22 -58 -13
-108 -72 -103 -33 3 -37 6 -35 30 1 15 11 48 22 73 l20 46 29 -15 c16 -8 32
-23 36 -31z"/>
<path d="M2301 1021 c-12 -7 -11 -20 4 -80 17 -69 17 -73 0 -91 -40 -44 -73
-16 -96 79 -12 46 -31 72 -44 59 -11 -11 36 -154 56 -170 31 -26 75 -23 106 8
22 23 25 31 20 72 -10 80 -30 133 -46 123z"/>
<path d="M1781 889 c-36 -61 -50 -94 -43 -101 7 -7 16 -2 27 16 14 20 25 26
55 26 35 0 39 -3 45 -30 4 -16 13 -30 21 -30 8 0 14 3 14 6 0 17 -55 204 -60
204 -3 0 -30 -41 -59 -91z m61 -4 c4 -21 1 -25 -18 -25 -22 0 -23 2 -12 25 6
14 14 25 18 25 4 0 10 -11 12 -25z"/>
</g>
</svg>
